<?xml version="1.0" encoding="utf-8"?>
<!-- Generator: Adobe Illustrator 23.0.5, SVG Export Plug-In . SVG Version: 6.00 Build 0)  -->
<svg version="1.1" id="Capa_1" xmlns="http://www.w3.org/2000/svg" xmlns:xlink="http://www.w3.org/1999/xlink" x="0px" y="0px"
	 viewBox="0 0 60.6 60.4" style="enable-background:new 0 0 60.6 60.4;" xml:space="preserve">
<style type="text/css">
	.st0{fill:url(#SVGID_1_);}
	.st1{fill:none;stroke:#000002;stroke-miterlimit:10;}
	.st2{fill:#1A9658;}
	.st3{clip-path:url(#SVGID_9_);}
	.st4{clip-path:url(#SVGID_11_);}
	.st5{fill:none;}
</style>
<title>virus</title>
<linearGradient id="SVGID_1_" gradientUnits="userSpaceOnUse" x1="40.9" y1="744.2" x2="40.9" y2="744.2" gradientTransform="matrix(1 0 0 1 8.000000e-02 -705.9)">
	<stop  offset="0" style="stop-color:#139545"/>
	<stop  offset="0.27" style="stop-color:#119043"/>
	<stop  offset="0.6" style="stop-color:#0B803D"/>
	<stop  offset="0.97" style="stop-color:#006733"/>
	<stop  offset="0.98" style="stop-color:#006633"/>
</linearGradient>
<path class="st0" d="M41,38.3"/>
<path class="st1" d="M-16.4,22.2"/>
<path class="st2" d="M53.6,44.4c-1.1-0.3-2.3-0.4-3.4-0.1c-0.3,0.1-0.7,0-1-0.2L47.8,43c-0.4-0.3-0.5-0.9-0.3-1.4
	c0.4-0.9,0.7-1.8,1-2.7c0.2-0.9,1.2-1.4,2.1-1.2c0,0,0,0,0,0c3.6,1.4,7.7-0.4,9-4c0.7-1.7,0.6-3.7-0.1-5.4c-1.1-2.6-3.6-4.2-6.4-4.2
	c-1,0-2,0.2-2.9,0.6c-0.4,0.2-0.7,0.4-1,0.6c-0.8,0.6-1.9,0.4-2.5-0.4c0,0,0-0.1-0.1-0.1c-0.6-0.9-1.3-1.8-2-2.7
	c-0.6-0.8-0.7-1.9-0.3-2.8l1.5-2.9c0.4-0.8,1.1-1.3,2-1.5c0.8-0.1,1.5-0.3,2.2-0.6c2.2-1,3.8-3.1,4.1-5.5c0.2-2-0.4-4-1.7-5.5
	c-1.6-1.8-3.9-2.6-6.3-2.3c-3,0.4-5.4,2.8-5.8,5.8c-0.2,1.4,0,2.7,0.5,4c0.4,0.8,0.4,1.6,0,2.4l-1.2,2.2c-0.6,1.1-1.9,1.7-3.1,1.4
	c-1.3-0.3-2.7-0.6-4.1-0.7c-0.4,0-0.7-0.3-0.7-0.7c0,0,0,0,0,0l-1.1-4.8c-0.1-0.3,0-0.6,0.2-0.8c1.2-1.4,1.7-3.3,1.3-5.1
	c-0.5-2.3-2.3-4.2-4.6-4.7c-0.5,0.1-0.9,0.1-1.4,0.1c-3.3,0-6,2.7-6,6c0,2.5,1.6,4.7,3.9,5.6c0.3,0.1,0.6,0.4,0.6,0.6l0.9,3.9
	c0.1,0.4-0.2,0.9-0.6,1c-1.3,0.5-2.6,1.1-3.8,1.9c-0.5,0.3-1,0.3-1.5,0c-0.4-0.4-0.5-1-0.3-1.5c0.7-1.8,0.9-3.7,0.5-5.6
	c-0.8-3.4-3.6-6.1-7-6.8C7.9,4.3,3.1,7.5,2.2,12.4S4.6,22.1,9.5,23c1.5,0.3,3.1,0.2,4.5-0.3c0.4-0.1,0.9,0,1.2,0.4l0.4,0.5
	c0.3,0.4,0.3,0.9,0.1,1.4c-1.3,2.1-2.1,4.5-2.4,7c-0.1,0.5-0.5,0.9-1,1l-2,0.2c-0.3,0-0.7-0.1-0.9-0.4c-0.9-0.9-2.2-1.4-3.5-1.5
	c-2.2-0.1-4.3,1.1-5.3,3c-0.7,1.5-0.8,3.3-0.1,4.8c0.7,1.5,2,2.6,3.6,3c2.3,0.6,4.7-0.4,6-2.4c0.2-0.3,0.5-0.5,0.9-0.5l1.7-0.2
	c0.5,0,0.9,0.3,1.1,0.8c0.7,2.2,1.8,4.2,3.3,6c0.2,0.2,0.2,0.5,0,0.7c0,0,0,0,0,0c-0.1,0.2-0.4,0.2-0.6,0.1
	c-0.8-0.3-1.7-0.4-2.6-0.3c-3.6,0.4-6.2,3.5-5.8,7.1c0.1,1.4,0.7,2.7,1.6,3.7c1.6,1.7,3.9,2.5,6.2,2.1c2.4-0.4,4.3-2.2,4.9-4.5
	c0.3-1,0.4-2.1,0.2-3.1c0-0.2,0-0.3,0.1-0.4l0.8-0.9c0.1-0.2,0.4-0.2,0.6-0.1c0.5,0.3,1.1,0.5,1.6,0.8c0.7,0.3,1.1,1,1,1.8
	c-0.1,0.7,0,1.4,0.1,2.1c0.6,3,3.1,5.2,6.1,5.5H32c3.9,0,7-3.1,7-7c0-0.4,0-0.9-0.1-1.3c-0.2-0.7,0.1-1.5,0.8-1.9c1-0.6,2-1.3,2.9-2
	c0.3-0.3,0.6-0.4,1-0.3c0.3,0.1,0.6,0.3,0.8,0.6c0.2,0.3,0.2,0.6,0.1,0.9c-1.4,4,0.7,8.3,4.6,9.7c0.4,0.2,0.9,0.3,1.4,0.3
	c0.3,0,0.7,0.1,1,0.1c2.1,0,4.2-0.9,5.6-2.5c1.4-1.6,2.1-3.7,1.9-5.8C58.9,48,56.7,45.2,53.6,44.4z M50.1,30.1c0.6,0,1,0.4,1,1
	s-0.4,1-1,1s-1-0.4-1-1S49.5,30.1,50.1,30.1z M39.1,21.1c0.6,0,1,0.4,1,1s-0.4,1-1,1s-1-0.4-1-1S38.5,21.1,39.1,21.1z M34.1,25.1
	c0.6,0,1,0.4,1,1s-0.4,1-1,1s-1-0.4-1-1S33.5,25.1,34.1,25.1z M23.1,39.1c-0.6,0-1-0.4-1-1s0.4-1,1-1s1,0.4,1,1c0,0.5-0.4,1-0.9,1
	C23.2,39.1,23.1,39.1,23.1,39.1z M24.1,33.1c-2.2,0-4-1.8-4-4s1.8-4,4-4s4,1.8,4,4S26.3,33.1,24.1,33.1z M32.1,49.1
	c-3.3,0-6-2.7-6-6s2.7-6,6-6s6,2.7,6,6S35.4,49.1,32.1,49.1z M43.1,42.1c-0.6,0-1-0.4-1-1s0.4-1,1-1s1,0.4,1,1c0,0.5-0.4,1-0.9,1
	C43.2,42.1,43.1,42.1,43.1,42.1z M41.1,36.1c-2.2,0-4-1.8-4-4c0-2.2,1.8-4,4-4s4,1.8,4,4C45.1,34.3,43.3,36.1,41.1,36.1z"/>
<g>
	<defs>
		<path id="SVGID_2_" d="M53.6,44.4c-1.1-0.3-2.3-0.4-3.4-0.1c-0.3,0.1-0.7,0-1-0.2L47.8,43c-0.4-0.3-0.5-0.9-0.3-1.4
			c0.4-0.9,0.7-1.8,1-2.7c0.2-0.9,1.2-1.4,2.1-1.2c0,0,0,0,0,0c3.6,1.4,7.7-0.4,9-4c0.7-1.7,0.6-3.7-0.1-5.4
			c-1.1-2.6-3.6-4.2-6.4-4.2c-1,0-2,0.2-2.9,0.6c-0.4,0.2-0.7,0.4-1,0.6c-0.8,0.6-1.9,0.4-2.5-0.4c0,0,0-0.1-0.1-0.1
			c-0.6-0.9-1.3-1.8-2-2.7c-0.6-0.8-0.7-1.9-0.3-2.8l1.5-2.9c0.4-0.8,1.1-1.3,2-1.5c0.8-0.1,1.5-0.3,2.2-0.6c2.2-1,3.8-3.1,4.1-5.5
			c0.2-2-0.4-4-1.7-5.5c-1.6-1.8-3.9-2.6-6.3-2.3c-3,0.4-5.4,2.8-5.8,5.8c-0.2,1.4,0,2.7,0.5,4c0.4,0.8,0.4,1.6,0,2.4l-1.2,2.2
			c-0.6,1.1-1.9,1.7-3.1,1.4c-1.3-0.3-2.7-0.6-4.1-0.7c-0.4,0-0.7-0.3-0.7-0.7c0,0,0,0,0,0l-1.1-4.8c-0.1-0.3,0-0.6,0.2-0.8
			c1.2-1.4,1.7-3.3,1.3-5.1c-0.5-2.3-2.3-4.2-4.6-4.7c-0.5,0.1-0.9,0.1-1.4,0.1c-3.3,0-6,2.7-6,6c0,2.5,1.6,4.7,3.9,5.6
			c0.3,0.1,0.6,0.4,0.6,0.6l0.9,3.9c0.1,0.4-0.2,0.9-0.6,1c-1.3,0.5-2.6,1.1-3.8,1.9c-0.5,0.3-1,0.3-1.5,0c-0.4-0.4-0.5-1-0.3-1.5
			c0.7-1.8,0.9-3.7,0.5-5.6c-0.8-3.4-3.6-6.1-7-6.8C7.9,4.3,3.1,7.5,2.2,12.4S4.6,22.1,9.5,23c1.5,0.3,3.1,0.2,4.5-0.3
			c0.4-0.1,0.9,0,1.2,0.4l0.4,0.5c0.3,0.4,0.3,0.9,0.1,1.4c-1.3,2.1-2.1,4.5-2.4,7c-0.1,0.5-0.5,0.9-1,1l-2,0.2
			c-0.3,0-0.7-0.1-0.9-0.4c-0.9-0.9-2.2-1.4-3.5-1.5c-2.2-0.1-4.3,1.1-5.3,3c-0.7,1.5-0.8,3.3-0.1,4.8c0.7,1.5,2,2.6,3.6,3
			c2.3,0.6,4.7-0.4,6-2.4c0.2-0.3,0.5-0.5,0.9-0.5l1.7-0.2c0.5,0,0.9,0.3,1.1,0.8c0.7,2.2,1.8,4.2,3.3,6c0.2,0.2,0.2,0.5,0,0.7
			c0,0,0,0,0,0c-0.1,0.2-0.4,0.2-0.6,0.1c-0.8-0.3-1.7-0.4-2.6-0.3c-3.6,0.4-6.2,3.5-5.8,7.1c0.1,1.4,0.7,2.7,1.6,3.7
			c1.6,1.7,3.9,2.5,6.2,2.1c2.4-0.4,4.3-2.2,4.9-4.5c0.3-1,0.4-2.1,0.2-3.1c0-0.2,0-0.3,0.1-0.4l0.8-0.9c0.1-0.2,0.4-0.2,0.6-0.1
			c0.5,0.3,1.1,0.5,1.6,0.8c0.7,0.3,1.1,1,1,1.8c-0.1,0.7,0,1.4,0.1,2.1c0.6,3,3.1,5.2,6.1,5.5H32c3.9,0,7-3.1,7-7
			c0-0.4,0-0.9-0.1-1.3c-0.2-0.7,0.1-1.5,0.8-1.9c1-0.6,2-1.3,2.9-2c0.3-0.3,0.6-0.4,1-0.3c0.3,0.1,0.6,0.3,0.8,0.6
			c0.2,0.3,0.2,0.6,0.1,0.9c-1.4,4,0.7,8.3,4.6,9.7c0.4,0.2,0.9,0.3,1.4,0.3c0.3,0,0.7,0.1,1,0.1c2.1,0,4.2-0.9,5.6-2.5
			c1.4-1.6,2.1-3.7,1.9-5.8C58.9,48,56.7,45.2,53.6,44.4z M50.1,30.1c0.6,0,1,0.4,1,1s-0.4,1-1,1s-1-0.4-1-1S49.5,30.1,50.1,30.1z
			 M39.1,21.1c0.6,0,1,0.4,1,1s-0.4,1-1,1s-1-0.4-1-1S38.5,21.1,39.1,21.1z M34.1,25.1c0.6,0,1,0.4,1,1s-0.4,1-1,1s-1-0.4-1-1
			S33.5,25.1,34.1,25.1z M23.1,39.1c-0.6,0-1-0.4-1-1s0.4-1,1-1s1,0.4,1,1c0,0.5-0.4,1-0.9,1C23.2,39.1,23.1,39.1,23.1,39.1z
			 M24.1,33.1c-2.2,0-4-1.8-4-4s1.8-4,4-4s4,1.8,4,4S26.3,33.1,24.1,33.1z M32.1,49.1c-3.3,0-6-2.7-6-6s2.7-6,6-6s6,2.7,6,6
			S35.4,49.1,32.1,49.1z M43.1,42.1c-0.6,0-1-0.4-1-1s0.4-1,1-1s1,0.4,1,1c0,0.5-0.4,1-0.9,1C43.2,42.1,43.1,42.1,43.1,42.1z
			 M41.1,36.1c-2.2,0-4-1.8-4-4c0-2.2,1.8-4,4-4s4,1.8,4,4C45.1,34.3,43.3,36.1,41.1,36.1z"/>
	</defs>
	<clipPath id="SVGID_3_">
		<use xlink:href="#SVGID_2_"  style="overflow:visible;"/>
	</clipPath>
</g>
<g>
	<defs>
		<path id="SVGID_4_" d="M53.6,44.4c-1.1-0.3-2.3-0.4-3.4-0.1c-0.3,0.1-0.7,0-1-0.2L47.8,43c-0.4-0.3-0.5-0.9-0.3-1.4
			c0.4-0.9,0.7-1.8,1-2.7c0.2-0.9,1.2-1.4,2.1-1.2c0,0,0,0,0,0c3.6,1.4,7.7-0.4,9-4c0.7-1.7,0.6-3.7-0.1-5.4
			c-1.1-2.6-3.6-4.2-6.4-4.2c-1,0-2,0.2-2.9,0.6c-0.4,0.2-0.7,0.4-1,0.6c-0.8,0.6-1.9,0.4-2.5-0.4c0,0,0-0.1-0.1-0.1
			c-0.6-0.9-1.3-1.8-2-2.7c-0.6-0.8-0.7-1.9-0.3-2.8l1.5-2.9c0.4-0.8,1.1-1.3,2-1.5c0.8-0.1,1.5-0.3,2.2-0.6c2.2-1,3.8-3.1,4.1-5.5
			c0.2-2-0.4-4-1.7-5.5c-1.6-1.8-3.9-2.6-6.3-2.3c-3,0.4-5.4,2.8-5.8,5.8c-0.2,1.4,0,2.7,0.5,4c0.4,0.8,0.4,1.6,0,2.4l-1.2,2.2
			c-0.6,1.1-1.9,1.7-3.1,1.4c-1.3-0.3-2.7-0.6-4.1-0.7c-0.4,0-0.7-0.3-0.7-0.7c0,0,0,0,0,0l-1.1-4.8c-0.1-0.3,0-0.6,0.2-0.8
			c1.2-1.4,1.7-3.3,1.3-5.1c-0.5-2.3-2.3-4.2-4.6-4.7c-0.5,0.1-0.9,0.1-1.4,0.1c-3.3,0-6,2.7-6,6c0,2.5,1.6,4.7,3.9,5.6
			c0.3,0.1,0.6,0.4,0.6,0.6l0.9,3.9c0.1,0.4-0.2,0.9-0.6,1c-1.3,0.5-2.6,1.1-3.8,1.9c-0.5,0.3-1,0.3-1.5,0c-0.4-0.4-0.5-1-0.3-1.5
			c0.7-1.8,0.9-3.7,0.5-5.6c-0.8-3.4-3.6-6.1-7-6.8C7.9,4.3,3.1,7.5,2.2,12.4S4.6,22.1,9.5,23c1.5,0.3,3.1,0.2,4.5-0.3
			c0.4-0.1,0.9,0,1.2,0.4l0.4,0.5c0.3,0.4,0.3,0.9,0.1,1.4c-1.3,2.1-2.1,4.5-2.4,7c-0.1,0.5-0.5,0.9-1,1l-2,0.2
			c-0.3,0-0.7-0.1-0.9-0.4c-0.9-0.9-2.2-1.4-3.5-1.5c-2.2-0.1-4.3,1.1-5.3,3c-0.7,1.5-0.8,3.3-0.1,4.8c0.7,1.5,2,2.6,3.6,3
			c2.3,0.6,4.7-0.4,6-2.4c0.2-0.3,0.5-0.5,0.9-0.5l1.7-0.2c0.5,0,0.9,0.3,1.1,0.8c0.7,2.2,1.8,4.2,3.3,6c0.2,0.2,0.2,0.5,0,0.7
			c0,0,0,0,0,0c-0.1,0.2-0.4,0.2-0.6,0.1c-0.8-0.3-1.7-0.4-2.6-0.3c-3.6,0.4-6.2,3.5-5.8,7.1c0.1,1.4,0.7,2.7,1.6,3.7
			c1.6,1.7,3.9,2.5,6.2,2.1c2.4-0.4,4.3-2.2,4.9-4.5c0.3-1,0.4-2.1,0.2-3.1c0-0.2,0-0.3,0.1-0.4l0.8-0.9c0.1-0.2,0.4-0.2,0.6-0.1
			c0.5,0.3,1.1,0.5,1.6,0.8c0.7,0.3,1.1,1,1,1.8c-0.1,0.7,0,1.4,0.1,2.1c0.6,3,3.1,5.2,6.1,5.5H32c3.9,0,7-3.1,7-7
			c0-0.4,0-0.9-0.1-1.3c-0.2-0.7,0.1-1.5,0.8-1.9c1-0.6,2-1.3,2.9-2c0.3-0.3,0.6-0.4,1-0.3c0.3,0.1,0.6,0.3,0.8,0.6
			c0.2,0.3,0.2,0.6,0.1,0.9c-1.4,4,0.7,8.3,4.6,9.7c0.4,0.2,0.9,0.3,1.4,0.3c0.3,0,0.7,0.1,1,0.1c2.1,0,4.2-0.9,5.6-2.5
			c1.4-1.6,2.1-3.7,1.9-5.8C58.9,48,56.7,45.2,53.6,44.4z M50.1,30.1c0.6,0,1,0.4,1,1s-0.4,1-1,1s-1-0.4-1-1S49.5,30.1,50.1,30.1z
			 M39.1,21.1c0.6,0,1,0.4,1,1s-0.4,1-1,1s-1-0.4-1-1S38.5,21.1,39.1,21.1z M34.1,25.1c0.6,0,1,0.4,1,1s-0.4,1-1,1s-1-0.4-1-1
			S33.5,25.1,34.1,25.1z M23.1,39.1c-0.6,0-1-0.4-1-1s0.4-1,1-1s1,0.4,1,1c0,0.5-0.4,1-0.9,1C23.2,39.1,23.1,39.1,23.1,39.1z
			 M24.1,33.1c-2.2,0-4-1.8-4-4s1.8-4,4-4s4,1.8,4,4S26.3,33.1,24.1,33.1z M32.1,49.1c-3.3,0-6-2.7-6-6s2.7-6,6-6s6,2.7,6,6
			S35.4,49.1,32.1,49.1z M43.1,42.1c-0.6,0-1-0.4-1-1s0.4-1,1-1s1,0.4,1,1c0,0.5-0.4,1-0.9,1C43.2,42.1,43.1,42.1,43.1,42.1z
			 M41.1,36.1c-2.2,0-4-1.8-4-4c0-2.2,1.8-4,4-4s4,1.8,4,4C45.1,34.3,43.3,36.1,41.1,36.1z"/>
	</defs>
	<clipPath id="SVGID_5_">
		<use xlink:href="#SVGID_4_"  style="overflow:visible;"/>
	</clipPath>
</g>
<g>
	<defs>
		<path id="SVGID_6_" d="M53.6,44.4c-1.1-0.3-2.3-0.4-3.4-0.1c-0.3,0.1-0.7,0-1-0.2L47.8,43c-0.4-0.3-0.5-0.9-0.3-1.4
			c0.4-0.9,0.7-1.8,1-2.7c0.2-0.9,1.2-1.4,2.1-1.2c0,0,0,0,0,0c3.6,1.4,7.7-0.4,9-4c0.7-1.7,0.6-3.7-0.1-5.4
			c-1.1-2.6-3.6-4.2-6.4-4.2c-1,0-2,0.2-2.9,0.6c-0.4,0.2-0.7,0.4-1,0.6c-0.8,0.6-1.9,0.4-2.5-0.4c0,0,0-0.1-0.1-0.1
			c-0.6-0.9-1.3-1.8-2-2.7c-0.6-0.8-0.7-1.9-0.3-2.8l1.5-2.9c0.4-0.8,1.1-1.3,2-1.5c0.8-0.1,1.5-0.3,2.2-0.6c2.2-1,3.8-3.1,4.1-5.5
			c0.2-2-0.4-4-1.7-5.5c-1.6-1.8-3.9-2.6-6.3-2.3c-3,0.4-5.4,2.8-5.8,5.8c-0.2,1.4,0,2.7,0.5,4c0.4,0.8,0.4,1.6,0,2.4l-1.2,2.2
			c-0.6,1.1-1.9,1.7-3.1,1.4c-1.3-0.3-2.7-0.6-4.1-0.7c-0.4,0-0.7-0.3-0.7-0.7c0,0,0,0,0,0l-1.1-4.8c-0.1-0.3,0-0.6,0.2-0.8
			c1.2-1.4,1.7-3.3,1.3-5.1c-0.5-2.3-2.3-4.2-4.6-4.7c-0.5,0.1-0.9,0.1-1.4,0.1c-3.3,0-6,2.7-6,6c0,2.5,1.6,4.7,3.9,5.6
			c0.3,0.1,0.6,0.4,0.6,0.6l0.9,3.9c0.1,0.4-0.2,0.9-0.6,1c-1.3,0.5-2.6,1.1-3.8,1.9c-0.5,0.3-1,0.3-1.5,0c-0.4-0.4-0.5-1-0.3-1.5
			c0.7-1.8,0.9-3.7,0.5-5.6c-0.8-3.4-3.6-6.1-7-6.8C7.9,4.3,3.1,7.5,2.2,12.4S4.6,22.1,9.5,23c1.5,0.3,3.1,0.2,4.5-0.3
			c0.4-0.1,0.9,0,1.2,0.4l0.4,0.5c0.3,0.4,0.3,0.9,0.1,1.4c-1.3,2.1-2.1,4.5-2.4,7c-0.1,0.5-0.5,0.9-1,1l-2,0.2
			c-0.3,0-0.7-0.1-0.9-0.4c-0.9-0.9-2.2-1.4-3.5-1.5c-2.2-0.1-4.3,1.1-5.3,3c-0.7,1.5-0.8,3.3-0.1,4.8c0.7,1.5,2,2.6,3.6,3
			c2.3,0.6,4.7-0.4,6-2.4c0.2-0.3,0.5-0.5,0.9-0.5l1.7-0.2c0.5,0,0.9,0.3,1.1,0.8c0.7,2.2,1.8,4.2,3.3,6c0.2,0.2,0.2,0.5,0,0.7
			c0,0,0,0,0,0c-0.1,0.2-0.4,0.2-0.6,0.1c-0.8-0.3-1.7-0.4-2.6-0.3c-3.6,0.4-6.2,3.5-5.8,7.1c0.1,1.4,0.7,2.7,1.6,3.7
			c1.6,1.7,3.9,2.5,6.2,2.1c2.4-0.4,4.3-2.2,4.9-4.5c0.3-1,0.4-2.1,0.2-3.1c0-0.2,0-0.3,0.1-0.4l0.8-0.9c0.1-0.2,0.4-0.2,0.6-0.1
			c0.5,0.3,1.1,0.5,1.6,0.8c0.7,0.3,1.1,1,1,1.8c-0.1,0.7,0,1.4,0.1,2.1c0.6,3,3.1,5.2,6.1,5.5H32c3.9,0,7-3.1,7-7
			c0-0.4,0-0.9-0.1-1.3c-0.2-0.7,0.1-1.5,0.8-1.9c1-0.6,2-1.3,2.9-2c0.3-0.3,0.6-0.4,1-0.3c0.3,0.1,0.6,0.3,0.8,0.6
			c0.2,0.3,0.2,0.6,0.1,0.9c-1.4,4,0.7,8.3,4.6,9.7c0.4,0.2,0.9,0.3,1.4,0.3c0.3,0,0.7,0.1,1,0.1c2.1,0,4.2-0.9,5.6-2.5
			c1.4-1.6,2.1-3.7,1.9-5.8C58.9,48,56.7,45.2,53.6,44.4z M50.1,30.1c0.6,0,1,0.4,1,1s-0.4,1-1,1s-1-0.4-1-1S49.5,30.1,50.1,30.1z
			 M39.1,21.1c0.6,0,1,0.4,1,1s-0.4,1-1,1s-1-0.4-1-1S38.5,21.1,39.1,21.1z M34.1,25.1c0.6,0,1,0.4,1,1s-0.4,1-1,1s-1-0.4-1-1
			S33.5,25.1,34.1,25.1z M23.1,39.1c-0.6,0-1-0.4-1-1s0.4-1,1-1s1,0.4,1,1c0,0.5-0.4,1-0.9,1C23.2,39.1,23.1,39.1,23.1,39.1z
			 M24.1,33.1c-2.2,0-4-1.8-4-4s1.8-4,4-4s4,1.8,4,4S26.3,33.1,24.1,33.1z M32.1,49.1c-3.3,0-6-2.7-6-6s2.7-6,6-6s6,2.7,6,6
			S35.4,49.1,32.1,49.1z M43.1,42.1c-0.6,0-1-0.4-1-1s0.4-1,1-1s1,0.4,1,1c0,0.5-0.4,1-0.9,1C43.2,42.1,43.1,42.1,43.1,42.1z
			 M41.1,36.1c-2.2,0-4-1.8-4-4c0-2.2,1.8-4,4-4s4,1.8,4,4C45.1,34.3,43.3,36.1,41.1,36.1z"/>
	</defs>
	<clipPath id="SVGID_7_">
		<use xlink:href="#SVGID_6_"  style="overflow:visible;"/>
	</clipPath>
</g>
<g>
	<defs>
		<path id="SVGID_8_" d="M53.6,44.4c-1.1-0.3-2.3-0.4-3.4-0.1c-0.3,0.1-0.7,0-1-0.2L47.8,43c-0.4-0.3-0.5-0.9-0.3-1.4
			c0.4-0.9,0.7-1.8,1-2.7c0.2-0.9,1.2-1.4,2.1-1.2c0,0,0,0,0,0c3.6,1.4,7.7-0.4,9-4c0.7-1.7,0.6-3.7-0.1-5.4
			c-1.1-2.6-3.6-4.2-6.4-4.2c-1,0-2,0.2-2.9,0.6c-0.4,0.2-0.7,0.4-1,0.6c-0.8,0.6-1.9,0.4-2.5-0.4c0,0,0-0.1-0.1-0.1
			c-0.6-0.9-1.3-1.8-2-2.7c-0.6-0.8-0.7-1.9-0.3-2.8l1.5-2.9c0.4-0.8,1.1-1.3,2-1.5c0.8-0.1,1.5-0.3,2.2-0.6c2.2-1,3.8-3.1,4.1-5.5
			c0.2-2-0.4-4-1.7-5.5c-1.6-1.8-3.9-2.6-6.3-2.3c-3,0.4-5.4,2.8-5.8,5.8c-0.2,1.4,0,2.7,0.5,4c0.4,0.8,0.4,1.6,0,2.4l-1.2,2.2
			c-0.6,1.1-1.9,1.7-3.1,1.4c-1.3-0.3-2.7-0.6-4.1-0.7c-0.4,0-0.7-0.3-0.7-0.7c0,0,0,0,0,0l-1.1-4.8c-0.1-0.3,0-0.6,0.2-0.8
			c1.2-1.4,1.7-3.3,1.3-5.1c-0.5-2.3-2.3-4.2-4.6-4.7c-0.5,0.1-0.9,0.1-1.4,0.1c-3.3,0-6,2.7-6,6c0,2.5,1.6,4.7,3.9,5.6
			c0.3,0.1,0.6,0.4,0.6,0.6l0.9,3.9c0.1,0.4-0.2,0.9-0.6,1c-1.3,0.5-2.6,1.1-3.8,1.9c-0.5,0.3-1,0.3-1.5,0c-0.4-0.4-0.5-1-0.3-1.5
			c0.7-1.8,0.9-3.7,0.5-5.6c-0.8-3.4-3.6-6.1-7-6.8C7.9,4.3,3.1,7.5,2.2,12.4S4.6,22.1,9.5,23c1.5,0.3,3.1,0.2,4.5-0.3
			c0.4-0.1,0.9,0,1.2,0.4l0.4,0.5c0.3,0.4,0.3,0.9,0.1,1.4c-1.3,2.1-2.1,4.5-2.4,7c-0.1,0.5-0.5,0.9-1,1l-2,0.2
			c-0.3,0-0.7-0.1-0.9-0.4c-0.9-0.9-2.2-1.4-3.5-1.5c-2.2-0.1-4.3,1.1-5.3,3c-0.7,1.5-0.8,3.3-0.1,4.8c0.7,1.5,2,2.6,3.6,3
			c2.3,0.6,4.7-0.4,6-2.4c0.2-0.3,0.5-0.5,0.9-0.5l1.7-0.2c0.5,0,0.9,0.3,1.1,0.8c0.7,2.2,1.8,4.2,3.3,6c0.2,0.2,0.2,0.5,0,0.7
			c0,0,0,0,0,0c-0.1,0.2-0.4,0.2-0.6,0.1c-0.8-0.3-1.7-0.4-2.6-0.3c-3.6,0.4-6.2,3.5-5.8,7.1c0.1,1.4,0.7,2.7,1.6,3.7
			c1.6,1.7,3.9,2.5,6.2,2.1c2.4-0.4,4.3-2.2,4.9-4.5c0.3-1,0.4-2.1,0.2-3.1c0-0.2,0-0.3,0.1-0.4l0.8-0.9c0.1-0.2,0.4-0.2,0.6-0.1
			c0.5,0.3,1.1,0.5,1.6,0.8c0.7,0.3,1.1,1,1,1.8c-0.1,0.7,0,1.4,0.1,2.1c0.6,3,3.1,5.2,6.1,5.5H32c3.9,0,7-3.1,7-7
			c0-0.4,0-0.9-0.1-1.3c-0.2-0.7,0.1-1.5,0.8-1.9c1-0.6,2-1.3,2.9-2c0.3-0.3,0.6-0.4,1-0.3c0.3,0.1,0.6,0.3,0.8,0.6
			c0.2,0.3,0.2,0.6,0.1,0.9c-1.4,4,0.7,8.3,4.6,9.7c0.4,0.2,0.9,0.3,1.4,0.3c0.3,0,0.7,0.1,1,0.1c2.1,0,4.2-0.9,5.6-2.5
			c1.4-1.6,2.1-3.7,1.9-5.8C58.9,48,56.7,45.2,53.6,44.4z M50.1,30.1c0.6,0,1,0.4,1,1s-0.4,1-1,1s-1-0.4-1-1S49.5,30.1,50.1,30.1z
			 M39.1,21.1c0.6,0,1,0.4,1,1s-0.4,1-1,1s-1-0.4-1-1S38.5,21.1,39.1,21.1z M34.1,25.1c0.6,0,1,0.4,1,1s-0.4,1-1,1s-1-0.4-1-1
			S33.5,25.1,34.1,25.1z M23.1,39.1c-0.6,0-1-0.4-1-1s0.4-1,1-1s1,0.4,1,1c0,0.5-0.4,1-0.9,1C23.2,39.1,23.1,39.1,23.1,39.1z
			 M24.1,33.1c-2.2,0-4-1.8-4-4s1.8-4,4-4s4,1.8,4,4S26.3,33.1,24.1,33.1z M32.1,49.1c-3.3,0-6-2.7-6-6s2.7-6,6-6s6,2.7,6,6
			S35.4,49.1,32.1,49.1z M43.1,42.1c-0.6,0-1-0.4-1-1s0.4-1,1-1s1,0.4,1,1c0,0.5-0.4,1-0.9,1C43.2,42.1,43.1,42.1,43.1,42.1z
			 M41.1,36.1c-2.2,0-4-1.8-4-4c0-2.2,1.8-4,4-4s4,1.8,4,4C45.1,34.3,43.3,36.1,41.1,36.1z"/>
	</defs>
	<clipPath id="SVGID_9_">
		<use xlink:href="#SVGID_8_"  style="overflow:visible;"/>
	</clipPath>
	<g class="st3">
		<g>
			<defs>
				<path id="SVGID_10_" d="M53.6,44.4c-1.1-0.3-2.3-0.4-3.4-0.1c-0.3,0.1-0.7,0-1-0.2L47.8,43c-0.4-0.3-0.5-0.9-0.3-1.4
					c0.4-0.9,0.7-1.8,1-2.7c0.2-0.9,1.2-1.4,2.1-1.2c0,0,0,0,0,0c3.6,1.4,7.7-0.4,9-4c0.7-1.7,0.6-3.7-0.1-5.4
					c-1.1-2.6-3.6-4.2-6.4-4.2c-1,0-2,0.2-2.9,0.6c-0.4,0.2-0.7,0.4-1,0.6c-0.8,0.6-1.9,0.4-2.5-0.4c0,0,0-0.1-0.1-0.1
					c-0.6-0.9-1.3-1.8-2-2.7c-0.6-0.8-0.7-1.9-0.3-2.8l1.5-2.9c0.4-0.8,1.1-1.3,2-1.5c0.8-0.1,1.5-0.3,2.2-0.6
					c2.2-1,3.8-3.1,4.1-5.5c0.2-2-0.4-4-1.7-5.5c-1.6-1.8-3.9-2.6-6.3-2.3c-3,0.4-5.4,2.8-5.8,5.8c-0.2,1.4,0,2.7,0.5,4
					c0.4,0.8,0.4,1.6,0,2.4l-1.2,2.2c-0.6,1.1-1.9,1.7-3.1,1.4c-1.3-0.3-2.7-0.6-4.1-0.7c-0.4,0-0.7-0.3-0.7-0.7c0,0,0,0,0,0
					l-1.1-4.8c-0.1-0.3,0-0.6,0.2-0.8c1.2-1.4,1.7-3.3,1.3-5.1c-0.5-2.3-2.3-4.2-4.6-4.7c-0.5,0.1-0.9,0.1-1.4,0.1c-3.3,0-6,2.7-6,6
					c0,2.5,1.6,4.7,3.9,5.6c0.3,0.1,0.6,0.4,0.6,0.6l0.9,3.9c0.1,0.4-0.2,0.9-0.6,1c-1.3,0.5-2.6,1.1-3.8,1.9c-0.5,0.3-1,0.3-1.5,0
					c-0.4-0.4-0.5-1-0.3-1.5c0.7-1.8,0.9-3.7,0.5-5.6c-0.8-3.4-3.6-6.1-7-6.8C7.9,4.3,3.1,7.5,2.2,12.4S4.6,22.1,9.5,23
					c1.5,0.3,3.1,0.2,4.5-0.3c0.4-0.1,0.9,0,1.2,0.4l0.4,0.5c0.3,0.4,0.3,0.9,0.1,1.4c-1.3,2.1-2.1,4.5-2.4,7c-0.1,0.5-0.5,0.9-1,1
					l-2,0.2c-0.3,0-0.7-0.1-0.9-0.4c-0.9-0.9-2.2-1.4-3.5-1.5c-2.2-0.1-4.3,1.1-5.3,3c-0.7,1.5-0.8,3.3-0.1,4.8c0.7,1.5,2,2.6,3.6,3
					c2.3,0.6,4.7-0.4,6-2.4c0.2-0.3,0.5-0.5,0.9-0.5l1.7-0.2c0.5,0,0.9,0.3,1.1,0.8c0.7,2.2,1.8,4.2,3.3,6c0.2,0.2,0.2,0.5,0,0.7
					c0,0,0,0,0,0c-0.1,0.2-0.4,0.2-0.6,0.1c-0.8-0.3-1.7-0.4-2.6-0.3c-3.6,0.4-6.2,3.5-5.8,7.1c0.1,1.4,0.7,2.7,1.6,3.7
					c1.6,1.7,3.9,2.5,6.2,2.1c2.4-0.4,4.3-2.2,4.9-4.5c0.3-1,0.4-2.1,0.2-3.1c0-0.2,0-0.3,0.1-0.4l0.8-0.9c0.1-0.2,0.4-0.2,0.6-0.1
					c0.5,0.3,1.1,0.5,1.6,0.8c0.7,0.3,1.1,1,1,1.8c-0.1,0.7,0,1.4,0.1,2.1c0.6,3,3.1,5.2,6.1,5.5H32c3.9,0,7-3.1,7-7
					c0-0.4,0-0.9-0.1-1.3c-0.2-0.7,0.1-1.5,0.8-1.9c1-0.6,2-1.3,2.9-2c0.3-0.3,0.6-0.4,1-0.3c0.3,0.1,0.6,0.3,0.8,0.6
					c0.2,0.3,0.2,0.6,0.1,0.9c-1.4,4,0.7,8.3,4.6,9.7c0.4,0.2,0.9,0.3,1.4,0.3c0.3,0,0.7,0.1,1,0.1c2.1,0,4.2-0.9,5.6-2.5
					c1.4-1.6,2.1-3.7,1.9-5.8C58.9,48,56.7,45.2,53.6,44.4z M50.1,30.1c0.6,0,1,0.4,1,1s-0.4,1-1,1s-1-0.4-1-1S49.5,30.1,50.1,30.1z
					 M39.1,21.1c0.6,0,1,0.4,1,1s-0.4,1-1,1s-1-0.4-1-1S38.5,21.1,39.1,21.1z M34.1,25.1c0.6,0,1,0.4,1,1s-0.4,1-1,1s-1-0.4-1-1
					S33.5,25.1,34.1,25.1z M23.1,39.1c-0.6,0-1-0.4-1-1s0.4-1,1-1s1,0.4,1,1c0,0.5-0.4,1-0.9,1C23.2,39.1,23.1,39.1,23.1,39.1z
					 M24.1,33.1c-2.2,0-4-1.8-4-4s1.8-4,4-4s4,1.8,4,4S26.3,33.1,24.1,33.1z M32.1,49.1c-3.3,0-6-2.7-6-6s2.7-6,6-6s6,2.7,6,6
					S35.4,49.1,32.1,49.1z M43.1,42.1c-0.6,0-1-0.4-1-1s0.4-1,1-1s1,0.4,1,1c0,0.5-0.4,1-0.9,1C43.2,42.1,43.1,42.1,43.1,42.1z
					 M41.1,36.1c-2.2,0-4-1.8-4-4c0-2.2,1.8-4,4-4s4,1.8,4,4C45.1,34.3,43.3,36.1,41.1,36.1z"/>
			</defs>
			<clipPath id="SVGID_11_">
				<use xlink:href="#SVGID_10_"  style="overflow:visible;"/>
			</clipPath>
			<g class="st4">
				<path class="st5" d="M26.6,58.3C14.4,55.4,4.9,45.8,2.3,33.6c-0.6-2.9-0.7-5.8-0.2-8.7c0.7-3.3,2.1-6.4,4.2-9
					c7-9.6,19.1-14.6,30.9-15.6c3.9-0.3,8.1-0.2,11.1,2.2c2.1,1.6,3.4,4.1,4.5,6.5c2.4,5.1,4.4,10.4,6.1,15.8
					c1.3,3.6,1.8,7.4,1.7,11.2c-0.3,3.9-1.9,7.6-3.6,11.2c-0.6,1.8-1.7,3.3-3.1,4.5c-1.2,0.7-2.5,1.1-3.8,1.3
					c-4.3,0.8-8.7,1.7-13,2.5c-4,0.9-8.1,1.5-12.2,1.7c-4.5,0.2-9.2-0.4-13.1-2.6"/>
			</g>
		</g>
	</g>
</g>
</svg>
